<svg width="16" height="16" viewBox="0 0 16 16" fill="none" xmlns="http://www.w3.org/2000/svg">
<g clip-path="url(#clip0_312_6106)">
<path d="M11.6667 1.27783C10.916 1.28951 10.1817 1.49907 9.5379 1.88535C8.8941 2.27162 8.36363 2.82094 8.00005 3.47783C7.63648 2.82094 7.10601 2.27162 6.46221 1.88535C5.81841 1.49907 5.08409 1.28951 4.33339 1.27783C3.13668 1.32983 2.00919 1.85333 1.19724 2.73399C0.385293 3.61464 -0.0451135 4.78085 5.35741e-05 5.97783C5.35741e-05 9.00917 3.19072 12.3198 5.86672 14.5645C6.4642 15.0666 7.21962 15.3418 8.00005 15.3418C8.78048 15.3418 9.53591 15.0666 10.1334 14.5645C12.8094 12.3198 16.0001 9.00917 16.0001 5.97783C16.0452 4.78085 15.6148 3.61464 14.8029 2.73399C13.9909 1.85333 12.8634 1.32983 11.6667 1.27783ZM9.27672 13.5445C8.91938 13.8454 8.46722 14.0104 8.00005 14.0104C7.53289 14.0104 7.08073 13.8454 6.72339 13.5445C3.29805 10.6705 1.33339 7.91317 1.33339 5.97783C1.28781 5.13431 1.57763 4.30699 2.13963 3.6763C2.70163 3.04561 3.49021 2.66273 4.33339 2.61117C5.17656 2.66273 5.96515 3.04561 6.52714 3.6763C7.08914 4.30699 7.37896 5.13431 7.33339 5.97783C7.33339 6.15464 7.40363 6.32421 7.52865 6.44924C7.65367 6.57426 7.82324 6.6445 8.00005 6.6445C8.17686 6.6445 8.34643 6.57426 8.47146 6.44924C8.59648 6.32421 8.66672 6.15464 8.66672 5.97783C8.62115 5.13431 8.91096 4.30699 9.47296 3.6763C10.035 3.04561 10.8235 2.66273 11.6667 2.61117C12.5099 2.66273 13.2985 3.04561 13.8605 3.6763C14.4225 4.30699 14.7123 5.13431 14.6667 5.97783C14.6667 7.91317 12.7021 10.6705 9.27672 13.5418V13.5445Z" fill="#999999"/>
</g>
<defs>
<clipPath id="clip0_312_6106">
<rect width="16" height="16" fill="white"/>
</clipPath>
</defs>
</svg>
